<svg width="32" height="32" viewBox="0 0 32 32" fill="none" xmlns="http://www.w3.org/2000/svg">
<path d="M10.5333 26.6666C13.0781 27.9721 16.0054 28.3256 18.7878 27.6637C21.5702 27.0017 24.0247 25.3678 25.709 23.0562C27.3933 20.7447 28.1965 17.9076 27.9741 15.0562C27.7517 12.2048 26.5181 9.52661 24.4957 7.50424C22.4734 5.48187 19.7952 4.24832 16.9438 4.02587C14.0924 3.80342 11.2553 4.60671 8.94375 6.29098C6.63221 7.97524 4.99825 10.4297 4.33629 13.2121C3.67433 15.9945 4.02791 18.9219 5.33332 21.4666L2.66666 29.3333L10.5333 26.6666Z" stroke="#E0FFC3" stroke-width="2.66667" stroke-linecap="round" stroke-linejoin="round"/>
<path d="M20 12L12 20" stroke="#E0FFC3" stroke-width="2.66667" stroke-linecap="round" stroke-linejoin="round"/>
<path d="M12 12L20 20" stroke="#E0FFC3" stroke-width="2.66667" stroke-linecap="round" stroke-linejoin="round"/>
</svg>
