<svg width="109" height="32" viewBox="0 0 109 32" fill="none" xmlns="http://www.w3.org/2000/svg">
<path d="M19.6773 11.6667C23.3593 18.044 22.984 25.1533 18.8387 27.5467C14.6933 29.94 8.34867 26.7113 4.66667 20.3333C0.98467 13.9553 1.36 6.84667 5.50534 4.45333C9.65067 2.06 15.996 5.28933 19.6773 11.6667Z" stroke="#064733" stroke-width="2" stroke-linecap="round" stroke-linejoin="round"/>
<path d="M12.172 11.6667C8.49001 18.044 8.86534 25.1533 13.0107 27.5467C17.156 29.94 23.5013 26.7107 27.1833 20.3333C30.8653 13.956 30.49 6.84667 26.344 4.45333C22.2 2.06 15.854 5.28933 12.172 11.6667Z" stroke="#064733" stroke-width="2" stroke-linecap="round" stroke-linejoin="round"/>
<path d="M15.8353 6.896C17.2653 8.168 18.5887 9.77933 19.678 11.6667C23.3593 18.044 22.984 25.1533 18.8387 27.5467C17.9733 28.0467 17.012 28.3013 15.9987 28.3333" stroke="#064733" stroke-width="2" stroke-linecap="round" stroke-linejoin="round"/>
<path d="M47.952 19.872H43.504L42.768 22H40.416L44.432 10.816H47.04L51.056 22H48.688L47.952 19.872ZM47.344 18.08L45.728 13.408L44.112 18.08H47.344ZM58.8611 22L54.7971 17.024V22H52.5571V10.832H54.7971V15.84L58.8611 10.832H61.5651L56.9571 16.368L61.6931 22H58.8611ZM69.4705 22L65.4065 17.024V22H63.1665V10.832H65.4065V15.84L69.4705 10.832H72.1745L67.5665 16.368L72.3025 22H69.4705ZM80.6239 19.872H76.1759L75.4399 22H73.0879L77.1039 10.816H79.7119L83.7279 22H81.3599L80.6239 19.872ZM80.0159 18.08L78.3999 13.408L76.7839 18.08H80.0159ZM94.781 22H92.541L87.469 14.336V22H85.229V10.816H87.469L92.541 18.496V10.816H94.781V22ZM102.179 22.112C101.133 22.112 100.173 21.8667 99.2986 21.376C98.424 20.8853 97.7306 20.208 97.2186 19.344C96.7066 18.4693 96.4506 17.4827 96.4506 16.384C96.4506 15.296 96.7066 14.32 97.2186 13.456C97.7306 12.5813 98.424 11.8987 99.2986 11.408C100.173 10.9173 101.133 10.672 102.179 10.672C103.235 10.672 104.195 10.9173 105.059 11.408C105.933 11.8987 106.621 12.5813 107.123 13.456C107.635 14.32 107.891 15.296 107.891 16.384C107.891 17.4827 107.635 18.4693 107.123 19.344C106.621 20.208 105.933 20.8853 105.059 21.376C104.184 21.8667 103.224 22.112 102.179 22.112ZM102.179 20.112C102.851 20.112 103.443 19.9627 103.955 19.664C104.467 19.3547 104.867 18.9173 105.155 18.352C105.443 17.7867 105.587 17.1307 105.587 16.384C105.587 15.6373 105.443 14.9867 105.155 14.432C104.867 13.8667 104.467 13.4347 103.955 13.136C103.443 12.8373 102.851 12.688 102.179 12.688C101.507 12.688 100.909 12.8373 100.387 13.136C99.8746 13.4347 99.4746 13.8667 99.1866 14.432C98.8986 14.9867 98.7546 15.6373 98.7546 16.384C98.7546 17.1307 98.8986 17.7867 99.1866 18.352C99.4746 18.9173 99.8746 19.3547 100.387 19.664C100.909 19.9627 101.507 20.112 102.179 20.112Z" fill="#0A0A0A"/>
</svg>
