<svg width="64" height="64" viewBox="0 0 64 64" fill="none" xmlns="http://www.w3.org/2000/svg">
<g opacity="0.2">
<path d="M42.6667 8C41.2522 8 39.8957 8.5619 38.8955 9.5621C37.8953 10.5623 37.3334 11.9188 37.3334 13.3333V29.3333C37.3334 30.7478 37.8953 32.1044 38.8955 33.1046C39.8957 34.1048 41.2522 34.6667 42.6667 34.6667C43.374 34.6667 44.0522 34.9476 44.5523 35.4477C45.0524 35.9478 45.3334 36.6261 45.3334 37.3333V40C45.3334 41.4145 44.7715 42.771 43.7713 43.7712C42.7711 44.7714 41.4145 45.3333 40 45.3333C39.2928 45.3333 38.6145 45.6143 38.1144 46.1144C37.6143 46.6145 37.3334 47.2928 37.3334 48V53.3333C37.3334 54.0406 37.6143 54.7189 38.1144 55.219C38.6145 55.7191 39.2928 56 40 56C44.2435 56 48.3132 54.3143 51.3138 51.3137C54.3143 48.3131 56 44.2435 56 40V13.3333C56 11.9188 55.4381 10.5623 54.4379 9.5621C53.4377 8.5619 52.0812 8 50.6667 8H42.6667Z" stroke="#064733" stroke-width="5.33333" stroke-linecap="round" stroke-linejoin="round"/>
<path d="M13.3333 8C11.9188 8 10.5623 8.5619 9.5621 9.5621C8.5619 10.5623 8 11.9188 8 13.3333V29.3333C8 30.7478 8.5619 32.1044 9.5621 33.1046C10.5623 34.1048 11.9188 34.6667 13.3333 34.6667C14.0406 34.6667 14.7189 34.9476 15.219 35.4477C15.719 35.9478 16 36.6261 16 37.3333V40C16 41.4145 15.4381 42.771 14.4379 43.7712C13.4377 44.7714 12.0812 45.3333 10.6667 45.3333C9.95942 45.3333 9.28115 45.6143 8.78105 46.1144C8.28095 46.6145 8 47.2928 8 48V53.3333C8 54.0406 8.28095 54.7189 8.78105 55.219C9.28115 55.7191 9.95942 56 10.6667 56C14.9101 56 18.9798 54.3143 21.9804 51.3137C24.981 48.3131 26.6667 44.2435 26.6667 40V13.3333C26.6667 11.9188 26.1048 10.5623 25.1046 9.5621C24.1044 8.5619 22.7478 8 21.3333 8H13.3333Z" stroke="#064733" stroke-width="5.33333" stroke-linecap="round" stroke-linejoin="round"/>
</g>
</svg>
